
<svg xmlns="http://www.w3.org/2000/svg" version="1.1" width="135" height="150" viewBox="0 0 96 96">
    <rect x="0" y="0" width="135" height="150" fill="transparent"></rect>
    <g transform="translate(36.024, 60) scale(0.4, 1)">
        <path d="M3.12-35.09L3.12-35.09Q3.12-35.71 3.22-35.86 3.31-36 3.79-36L3.79-36 4.22-36Q8.06-36 10.61-34.7 13.15-33.41 13.82-30.96L13.82-30.96Q13.97-30.53 13.99-24.02 14.02-17.52 14.06-17.14L14.06-17.14Q14.54-15.41 16.22-14.16 17.9-12.91 20.02-12.91L20.02-12.91Q20.54-12.91 20.69-12.77 20.83-12.62 20.83-12 20.83-11.38 20.69-11.23 20.54-11.09 20.02-11.09L20.02-11.09Q18.14-11.09 16.49-10.03 14.83-8.98 14.3-7.54L14.3-7.54Q14.06-6.91 14.04-6.26 14.02-5.62 13.97 0L13.97 0Q13.92 6.62 13.82 6.96L13.82 6.96Q13.44 8.5 12.29 9.5L12.29 9.5Q9.7 12 4.27 12L4.27 12 3.74 12Q3.36 12 3.24 11.83 3.12 11.66 3.12 11.04L3.12 11.04Q3.12 10.51 3.22 10.37 3.31 10.22 3.7 10.22L3.7 10.22Q6.05 10.22 7.75 9.22 9.46 8.21 9.94 6.67L9.94 6.67Q9.98 6.43 10.03-0.14L10.03-0.14 10.08-6.67Q10.94-10.66 15.84-12L15.84-12Q14.26-12.53 13.44-12.96L13.44-12.96Q10.8-14.54 10.18-16.9L10.18-16.9 10.08-17.38 10.03-23.9Q9.98-30.43 9.94-30.72L9.94-30.72Q9.46-32.26 7.75-33.24 6.05-34.22 3.7-34.22L3.7-34.22Q3.31-34.22 3.22-34.37 3.12-34.51 3.12-35.09Z" fill="#e0e0e0"></path>
    </g>
</svg>



